<?xml version="1.0" encoding="UTF-8"?>
<svg width="28px" height="28px" viewBox="0 0 28 28" version="1.1" xmlns="http://www.w3.org/2000/svg" xmlns:xlink="http://www.w3.org/1999/xlink">
    <!-- Generator: Sketch 58 (84663) - https://sketch.com -->
    <title>ICONS / CITE</title>
    <desc>Created with Sketch.</desc>
    <g id="Symbols" stroke="none" stroke-width="1" fill="none" fill-rule="evenodd">
        <g id="CONTAINER-/-STORY-/-CITE-BOX-/-MOBILE-CITE-BOX" transform="translate(-158.000000, 0.000000)">
            <g id="Stacked-Group">
                <g id="LINE-TOP">
                    <g id="ICONS-/-CITE" transform="translate(158.000000, 0.000000)">
                        <g id="CITE-ICON">
                            <path d="M14,0 C21.7322279,0 28,6.26777209 28,14 C28,21.7322279 21.7322279,28 14,28 C6.26777209,28 0,21.7322279 0,14 C0,6.26777209 6.26777209,0 14,0 Z" id="Fill-1" fill="#E3000F"></path>
                            <path d="M15.560618,19 C15.7261548,18.8192368 15.9271638,18.5960723 16.163645,18.3282749 C16.3977613,18.0582459 16.615324,17.774827 16.8092385,17.4802499 C17.0031531,17.1856728 17.1686899,16.9044856 17.3105786,16.6344566 C17.4477377,16.3666592 17.5163172,16.1278732 17.5163172,15.9225619 C17.5163172,15.614595 17.393347,15.3735773 17.142677,15.1928141 C16.8943717,15.0120509 16.627148,14.8089712 16.3362762,14.5768802 C16.0454044,14.3470208 15.773451,14.0457487 15.5275106,13.673064 C15.2768406,13.302611 15.1538704,12.7826378 15.1538704,12.115376 C15.1538704,11.1401473 15.4707552,10.3769248 16.1092543,9.82570855 C16.7501182,9.2744923 17.5446949,9 18.4953492,9 C19.5287719,9 20.3706448,9.34590493 21.0233328,10.0377148 C21.6760208,10.7295247 22,11.6534256 22,12.8071859 C22,13.4231198 21.8841242,14.0390538 21.6547375,14.6527561 C21.422986,15.26869 21.1368438,15.846686 20.7986757,16.3845124 C20.4581428,16.9223388 20.0726785,17.4177639 19.6375532,17.8663245 C19.2024279,18.3148851 18.7791266,18.692033 18.372379,19 L15.560618,19 Z M7.40911241,19 C7.57464922,18.8192368 7.77565821,18.5960723 8.01213937,18.3282749 C8.24862053,18.0582459 8.46145357,17.774827 8.65773293,17.4802499 C8.85164749,17.1856728 9.0171843,16.9044856 9.15670818,16.6344566 C9.29623207,16.3666592 9.3648116,16.1278732 9.3648116,15.9225619 C9.3648116,15.614595 9.23947659,15.3735773 8.99353618,15.1928141 C8.74286615,15.0120509 8.47327763,14.8089712 8.1824058,14.5768802 C7.89389879,14.3470208 7.62431026,14.0457487 7.37364023,13.673064 C7.12769983,13.302611 7,12.7826378 7,12.115376 C7,11.1401473 7.32161438,10.3769248 7.96011351,9.82570855 C8.59624783,9.2744923 9.39082453,9 10.3414788,9 C11.3749015,9 12.2167744,9.34590493 12.8694624,10.0377148 C13.5221504,10.7295247 13.8484944,11.6534256 13.8484944,12.8071859 C13.8484944,13.4231198 13.7326186,14.0390538 13.5008671,14.6527561 C13.2714804,15.26869 12.987703,15.846686 12.6471701,16.3845124 C12.3066372,16.9223388 11.9188081,17.4177639 11.4836828,17.8663245 C11.0509223,18.3148851 10.6299858,18.692033 10.2208734,19 L7.40911241,19 Z" id="Fill-3" fill="#FFFFFF"></path>
                        </g>
                    </g>
                </g>
            </g>
        </g>
    </g>
</svg>