<?xml version="1.0" encoding="utf-8"?>
<!-- Generator: Adobe Illustrator 19.1.0, SVG Export Plug-In . SVG Version: 6.00 Build 0)  -->
<svg version="1.1" id="Layer_1" xmlns="http://www.w3.org/2000/svg" xmlns:xlink="http://www.w3.org/1999/xlink" x="0px" y="0px"
	 viewBox="-43 319 513 164" style="enable-background:new -43 319 513 164;" xml:space="preserve">
<style type="text/css">
	.st0{fill:#96999C;}
</style>
<g>
	<path class="st0" d="M463.4,420.2c-0.5-18.5-8.6-34.7-22.9-46.2c-25.7-19-74.6-18.3-98.3,4.2c-8.4,7.6-13.6,17.6-16.3,28.5
		c-3.5,19.2,0.3,36.5,11.8,52.4l0.9,1l0.8,1.1h36v-25.2h18.7H462l0.3-1.3l0.3-1.3C463.2,428.9,463.7,424.6,463.4,420.2L463.4,420.2
		C462.9,401.7,463.4,420.2,463.4,420.2C462.9,401.7,463.4,420.2,463.4,420.2C462.9,401.7,463.4,420.2,463.4,420.2z M394.1,410.7
		h-19.8l-0.1-1.8l0.3-1.7l0.3-1.6c3.4-12.3,19.8-17.7,30.4-10.8c3.9,2.1,7,6.3,8,10.6l0.4,1.7l0.3,1.8l0.2,1.9H394.1L394.1,410.7
		L394.1,410.7z"/>
	<path class="st0" d="M204.9,362.7l-1.1-0.3c-3.7-1.1-7.8-1.4-11.7-1c-8.7,0.9-16.2,4.9-22.1,11.4l-0.6,0.8l-0.7,0.8l-0.6,0.8
		l0.1-11.7h-46v98.4h50.5V413l0.1-1.4c0.4-4.5,2.1-9,5.5-12.1c4.1-3.4,8.7-4.7,13.9-5.1h15.1v-31L206,363L204.9,362.7L204.9,362.7
		L204.9,362.7L204.9,362.7z"/>
	<path class="st0" d="M96.9,392.6l-0.3-1.5c-0.2-0.9-0.4-1.8-0.7-2.7c-6.1-23.3-37.9-27-57.7-27.4c-22.3-0.5-48.4,4.1-62.4,23.3
		C-27.8,389.2-30,395-31,401l-0.1,0.8l-0.1,2.5h47.6l0.1-2.1l0.1-0.7c3.1-10.9,28.3-14,30.4-1.4c0.9,7.7-8.1,8.7-13.8,9.6l-6,0.9
		l-6,0.8l-6.1,0.8l-5.8,1l-1.5,0.2c-12,2-27,4.7-36.2,13.4c-8.9,8.5-12.4,25.3-1.2,33.3l1.1,0.6l1.2,0.5l1.3,0.3l1.4,0.1l1.5,0.1
		h46.7l-2.4-1.5l-0.4-0.5l-0.6-0.7l-0.8-0.9c-4.7-5.5-2.5-13,3.8-16.1l1.1-0.5l1.3-0.5l1.2-0.4l5.2-1.8l5.1-1.6l1.3-0.4
		c1.7-0.6,3.5-1.1,5.1-1.7l0.9-0.3l0.7-0.2l0.7-0.2l1.5-0.8v28.2h49.6v-64.4v-1.6l-0.1-1.6L96.9,392.6L96.9,392.6L96.9,392.6
		L96.9,392.6L96.9,392.6L96.9,392.6L96.9,392.6z"/>
	<path class="st0" d="M288.4,340.2h-50.1v23.2h-20.1v31h20.1V436v1.4v1.5l0.1,1.4l0.1,1.4l0.1,1.3c1.5,9,6.6,16.2,16,17.7l1.3,0.1
		l1.3,0.2l1.3,0.1l1.4,0.1l1.4,0.1h26.9v-66.9h28.8v-31h-28.8L288.4,340.2L288.4,340.2z"/>
</g>
</svg>
