<?xml version="1.0" encoding="utf-8"?>
<!-- Generator: Adobe Illustrator 20.1.0, SVG Export Plug-In . SVG Version: 6.00 Build 0)  -->
<svg version="1.1" id="Ebene_1" xmlns="http://www.w3.org/2000/svg" xmlns:xlink="http://www.w3.org/1999/xlink" x="0px" y="0px"
	 viewBox="0 0 434 94.5" style="enable-background:new 0 0 434 94.5;" xml:space="preserve">
<style type="text/css">
	.st0{fill:#96999C;}
</style>
<g>
	<path class="st0" d="M85.6,2.8H11.1c-3.5,0-6.3,0.6-6.3,5.8v76.8c0,4.9,2.8,5.8,6.3,5.8h30.7c2.3,0,4-0.4,5.5-2.2l0,0l28.2-37.5
		c0,0,2-2.7,2.3-4.7c0.7-4.5-2.5-5.9-6-5.9h-1.2c-3,0-0.6-3.1-0.6-3.1S90.9,9.8,91.5,8.7C93.1,5.7,91.8,2.8,85.6,2.8"/>
	<path class="st0" d="M198.7,2.7h-74.5c-3.4,0-6.5,0.8-6.5,5.8V48c0,24.1,18.5,43.2,43,43.2s43.8-20.7,43.8-44.7v-38
		C204.5,3.7,202.5,2.7,198.7,2.7"/>
	<path class="st0" d="M235.9,91.2h74.5c3.4,0,6.5-0.7,6.5-5.7V46c0-24.1-18.5-43.2-43-43.2s-43.8,20.8-43.8,44.7v38
		C230.1,90.5,232.1,91.2,235.9,91.2"/>
	<path class="st0" d="M428.5,85.2c-0.4-0.9-20.3-28.2-26.1-36.2c-1-1.3-1-3.2,0-4.6c5.8-8.4,25.5-35,26.1-35.8
		c1.9-2.7,0.2-5.8-4.8-5.8h-75c-3.4,0-6.2,0.7-6.2,5.7v77c-0.2,5,3.2,5.6,6.5,5.6h74.8C428.6,91.1,429.9,88.1,428.5,85.2"/>
</g>
</svg>
