<?xml version="1.0" encoding="utf-8"?>
<!-- Generator: Adobe Illustrator 21.0.2, SVG Export Plug-In . SVG Version: 6.00 Build 0)  -->
<svg version="1.1" id="Ebene_1" xmlns="http://www.w3.org/2000/svg" xmlns:xlink="http://www.w3.org/1999/xlink" x="0px" y="0px"
	 viewBox="0 0 500 186" style="enable-background:new 0 0 500 186;" xml:space="preserve">
<style type="text/css">
	.st0{fill:#96999C;}
</style>
<g>
	<path class="st0" d="M18.8,62.3v8c3.3-3.3,6.9-5.8,10.8-7.5c3.9-1.6,8-2.5,12.4-2.5c9.5,0,17.7,3.6,24.3,10.8
		c6.6,7.1,10,16.5,10,27.8c0,10.9-3.5,20.1-10.4,27.3c-6.9,7.4-15,11-24.6,11c-4.3,0-8.1-0.8-11.8-2.3c-3.6-1.5-7.3-4-10.8-7.4v34.6
		H0.5V62.3H18.8z M38.1,77.3c-5.8,0-10.5,2-14.4,5.9c-3.8,4-5.8,9.2-5.8,15.5c0,6.5,1.9,11.8,5.8,15.8c3.8,4,8.7,6,14.4,6
		c5.6,0,10.3-2,14.2-6.1s5.8-9.3,5.8-15.7c0-6.3-1.9-11.4-5.6-15.4C48.5,79.3,43.9,77.3,38.1,77.3 M84.8,135.5h18.3V106
		c0-7.9,0.3-12.9,0.8-15c1-4.3,2.9-7.6,5.5-10.2c2.6-2.5,5.9-3.8,9.7-3.8c2.9,0,5.3,0.8,7.3,2.3s3.4,3.8,4.1,6.8
		c0.8,3,1.3,8.8,1.3,17.3v32.1h18.1V87.1c0-8.4-2.1-14.8-6.4-19.2c-5-5-11.2-7.5-18.4-7.5c-3.8,0-7.4,0.8-11,2.4
		c-3.6,1.5-7.3,3.9-10.9,7V33.9H84.8V135.5z M195,60.3c6.9,0,13.4,1.8,19.4,5.1c6.1,3.5,10.8,8.1,14.3,14c3.4,5.9,5.1,12.3,5.1,19.2
		S232,112,228.7,118c-3.4,6-8.1,10.7-14,14.2c-5.9,3.4-12.4,5.1-19.6,5.1c-10.5,0-19.4-3.8-27-11.2c-7.4-7.5-11.2-16.5-11.2-27.2
		c0-11.4,4.1-20.9,12.5-28.6C176.9,63.5,185.3,60.3,195,60.3 M195.2,77.7c-5.8,0-10.5,2-14.3,6s-5.6,9-5.6,15.3
		c0,6.4,1.9,11.5,5.6,15.5c3.8,3.9,8.5,5.9,14.3,5.9s10.5-2,14.4-6c3.8-4,5.8-9.2,5.8-15.4c0-6.2-1.9-11.4-5.6-15.3
		C205.9,79.5,201.1,77.7,195.2,77.7 M316.7,104h-59.1c0.9,5.3,3.1,9.4,6.9,12.4c3.8,3.1,8.4,4.6,14.2,4.6c6.9,0,12.8-2.4,17.7-7.1
		l15.5,7.3c-3.9,5.5-8.5,9.5-13.9,12.2c-5.4,2.6-11.8,3.9-19.2,3.9c-11.5,0-20.8-3.6-28.1-10.9c-7.3-7.3-10.8-16.3-10.8-27.2
		c0-11.2,3.6-20.4,10.8-27.8c7.1-7.4,16.3-11,27.1-11c11.5,0,20.9,3.6,28.1,11c7.3,7.4,10.8,17.2,10.8,29.2V104z M298.3,89.7
		c-1.3-4.1-3.6-7.4-7.1-9.9s-7.8-3.9-12.4-3.9c-5.1,0-9.7,1.4-13.5,4.3c-2.4,1.8-4.6,5-6.8,9.5H298.3z M324.7,135.5h18.4v-29.3
		c0-7.6,0.3-12.5,0.8-14.9c1-4.4,2.9-7.9,5.5-10.3c2.6-2.5,5.9-3.8,9.5-3.8c2.9,0,5.3,0.8,7.3,2.3s3.3,3.6,4.1,6.5
		c0.8,2.9,1.1,8.7,1.1,17.4v32.1h18.2V87.1c0-8.4-2.1-14.8-6.4-19.2c-5-5-11.3-7.6-18.6-7.6c-3.5,0-7,0.6-10.4,2s-7.1,3.8-11.3,7.3
		V62h-18.4v73.5H324.7z M399.3,135.5h18.4V62.3h-18.4V135.5z M450.2,97l-27.8,38.5h20.9l17.3-24.1l17.6,24.1h21.3l-28.1-38.7
		l24.8-34.5h-20.9l-14.4,19.9l-14.5-19.9H425L450.2,97z"/>
</g>
</svg>
