<?xml version="1.0" encoding="utf-8"?>
<!-- Generator: Adobe Illustrator 19.1.0, SVG Export Plug-In . SVG Version: 6.00 Build 0)  -->
<svg version="1.1" id="Layer_1" xmlns="http://www.w3.org/2000/svg" xmlns:xlink="http://www.w3.org/1999/xlink" x="0px" y="0px"
	 viewBox="292 -247 508 285" style="enable-background:new 292 -247 508 285;" xml:space="preserve">
<style type="text/css">
	.st0{fill:#FFFFFF;}
	.st1{fill:#FA7D19;}
</style>
<g>
	<path class="st0" d="M777.4-175.1l-215.8,0c-10.3,0-18.6,8.3-18.6,18.6v62.8h-25.3l25.3,25.3v21.3c0,10.3,8.3,18.6,18.6,18.6
		l215.8,0c10.3,0,18.6-8.3,18.6-18.6v-109.4C796-166.8,787.7-175.1,777.4-175.1z"/>
	<g>
		<g>
			<path class="st1" d="M351.5-63.7v-15.6h19.1v32.1H296v-15l46.8-49.9h-25.5v14.7h-19.1v-31.3h72.4v15l-46.8,49.9L351.5-63.7
				L351.5-63.7z"/>
		</g>
		<path class="st1" d="M430.1-57.7c-10.2,9-13.6,10.7-20.4,10.7h-7.3c-8.6,0-13.2-1.5-16.7-5c-4.9-4.9-6.8-12-6.8-35.8
			c0-24,2.4-30.8,7.4-35.8c3.6-3.6,8.3-5,16.4-5h7.7c6.8,0,10.5,1.3,19.7,9.2v-19.3h-11v-17.6h33.2v91.7h11v17.6h-33.2L430.1-57.7
			L430.1-57.7z M430.1-68v-39.6c-4.7-2.2-8.3-3.4-12.1-3.4h-7c-4.1,0-6.1,0.6-7.4,1.9c-1.9,1.9-2.5,5.6-2.5,21.2s0.6,19.1,2.5,21.2
			c1.3,1.3,3.3,1.8,7.4,1.8h7C421.6-64.9,425.2-65.8,430.1-68z"/>
		<path class="st1" d="M510.2-139.3c-3,0-3.9,0.3-4.7,1c-0.7,0.9-1.2,2.7-1.2,6.7v3.1h15.1v17.6h-15v46.1h11.4v17.6h-44.4v-17.6h11
			v-46.1h-11v-17.8h11v-4.1c0-10.2,1.2-15.4,4.6-18.8c3.4-3.4,7-4.9,15.7-4.9h18.1v17.2L510.2-139.3L510.2-139.3z"/>
	</g>
	<g>
		<g>
			<polygon points="568.1,-47.1 568.1,-60 576.4,-60 576.4,-93.8 568.1,-93.8 568.1,-106.8 592.7,-106.8 592.7,-59.9 600.7,-59.9 
				600.7,-47.1 			"/>
			<rect x="575.3" y="-128.6" width="17" height="14.3"/>
		</g>
		<g>
			<path d="M631.1-98.9c7.7-6.9,10.1-8,15.6-8h5.4c5.2,0,8.4,1.1,10.6,3.4c2.5,2.4,3.5,5.5,3.5,14.3V-60h7.7v12.9h-30.3v-12.8h6.4
				v-27.6c0-2.5-0.4-3.9-1.3-4.9c-1-1-2.1-1.3-5-1.3h-3.3c-2.8,0-5.4,0.6-9.4,2.5v31.3h6.4v12.8h-30.6V-60h8v-33.8h-8v-13h24.2
				L631.1-98.9C631.1-98.9,631.1-98.9,631.1-98.9z"/>
		</g>
		<g>
			<path d="M708.6-114.6c-2.2,0-2.8,0.2-3.5,0.8c-0.5,0.7-0.9,2-0.9,4.9v2.3h11.1v12.9h-11V-60h8.4v12.9h-32.6V-60h8v-33.8h-8v-13h8
				v-3c0-7.5,0.9-11.3,3.4-13.8c2.5-2.5,5.1-3.6,11.5-3.6h13.2v12.6C716.3-114.6,708.6-114.6,708.6-114.6z"/>
		</g>
		<g>
			<path d="M725.4-50.8c-3.9-3.9-5.4-9.3-5.4-26.2c0-16.9,1.5-22.3,5.4-26.3c2.5-2.6,5.8-3.6,11.8-3.6h19.4c6.1,0,9.3,1,11.9,3.6
				c3.9,4,5.3,9.3,5.3,26.3s-1.4,22.3-5.3,26.2c-2.6,2.7-5.9,3.7-11.9,3.7h-19.4C731.2-47.1,728-48.1,725.4-50.8z M737.6-61.1
				c0.8,0.8,1.6,1,4.5,1h10c2.8,0,3.7-0.2,4.3-1c0.9-1,1.4-3,1.4-15.9c0-12.8-0.5-15-1.4-15.8c-0.7-0.8-1.5-1.1-4.3-1.1h-10
				c-2.8,0-3.7,0.2-4.5,1.1c-0.9,0.9-1.3,3-1.3,15.8C736.3-64.2,736.7-62.1,737.6-61.1z"/>
		</g>
	</g>
</g>
</svg>
