<?xml version="1.0" encoding="utf-8"?>
<!-- Generator: Adobe Illustrator 19.1.0, SVG Export Plug-In . SVG Version: 6.00 Build 0)  -->
<svg version="1.1" id="Ebene_1" xmlns="http://www.w3.org/2000/svg" xmlns:xlink="http://www.w3.org/1999/xlink" x="0px" y="0px"
	 viewBox="233 -70 498 201" style="enable-background:new 233 -70 498 201;" xml:space="preserve">
<style type="text/css">
	.st0{display:none;fill:#345C63;}
	.st1{fill:#96999C;}
</style>
<g>
	<path class="st0" d="M637.8,20.7h36.6v-35.4h-36.6V20.7z M644.2-8.3H668v22.6h-23.8V-8.3z"/>
	<g>
		<path class="st0" d="M715.1-56.5h-86.6l-41.8,33.6v-16.8c0-9.2-7.5-16.7-16.6-16.8h-22.9c-3.5,0-6.8,1-9.6,2.9L499-20.3v-19.4
			c0-9.3-7.6-16.8-16.9-16.8h-40.6h-6.4h-40.7c-5.6,0-10.8,2.8-13.9,6.8c-3-4-7.9-6.7-13.3-6.8h-22.9c-3.5,0-6.8,1-9.6,3L296-20.2
			v-36.3h-47.1c-9.3,0-16.9,7.6-16.9,16.9v140.2c0,9.3,7.6,16.9,16.9,16.9H296V81.2l38.4,33.2c2.8,2,6.4,3.1,9.8,3.1h22.9
			c5.5-0.1,10.4-2.9,13.4-7.1c3.1,4.3,8.1,7.1,13.8,7.1h16.8c2.6-0.4,5.3-1.3,7.2-2.6c1-0.7,10.2-8.1,16.6-13.3v16H482
			c9.3,0,16.9-7.6,16.9-16.9V81.2l38.6,33.3c2.9,2,6.2,3,9.6,3H570c5.5-0.1,10.4-2.9,13.4-7.1c3.1,4.3,8.1,7.1,13.7,7.1h47.1V66H668
			v51.6h47.1c9.3,0,16.9-7.6,16.9-16.9V-39.5C732-48.9,724.4-56.5,715.1-56.5 M377.3,100.6c0,5.7-4.6,10.4-10.3,10.5h-22.8
			c-2.2,0-4.2-0.6-6-1.9l-48.6-42v43.9h-40.7c-5.8,0-10.5-4.7-10.5-10.5V-39.6c0-5.8,4.7-10.5,10.5-10.5h40.7v43.9l48.6-42
			c1.8-1.2,3.8-1.9,6-1.9H367c5.7,0.1,10.3,4.8,10.3,10.5v25.3l-55.6,44.8l55.6,44.8V100.6z M377.3,67L332,30.5L377.4-6v73H377.3z
			 M434.9,93.3c-8,6.5-19.3,15.5-20.3,16.3c-1,0.7-2.5,1.2-4,1.5h-16.2c-5.8,0-10.6-4.8-10.6-10.6V-8.2h40.7
			c5.8,0,10.5,4.7,10.5,10.5v91H434.9z M434.9-14.7h-51.2v-26.7c0-4.1,4.6-8.8,10.5-8.8h40.7V-14.7L434.9-14.7z M580.3,100.5
			c0,5.7-4.6,10.4-10.3,10.5h-22.8c-2.2,0-4.2-0.7-6-1.9l-48.7-42v33.3c0,5.8-4.7,10.5-10.5,10.5h-40.6V-50.2H482
			c5.8,0,10.5,4.7,10.5,10.4v33.4l48.7-42c1.8-1.2,3.8-1.8,6-1.8H570c5.7,0.1,10.3,4.7,10.3,10.4v25.3l-55.6,44.8l55.6,44.8V100.5z
			 M580.3,67l-45.4-36.5l45.4-36.6V67z M725.6,100.5c0,5.8-4.7,10.5-10.5,10.5h-40.7V59.5h-36.6v51.6h-40.6
			c-5.8,0-10.5-4.7-10.5-10.5V-14.6l44-35.4h84.4c5.8,0,10.5,4.7,10.5,10.5L725.6,100.5L725.6,100.5z"/>
		<path class="st1" d="M377.3-14.3v-25.3c0-5.7-4.7-10.4-10.3-10.5h-22.8c-2.2,0-4.2,0.6-6,1.9l-48.6,42v-43.9h-40.7
			c-5.8,0-10.5,4.7-10.5,10.5v140.2c0,5.8,4.7,10.5,10.5,10.5h40.7V67.1l48.6,42c1.7,1.2,3.8,1.9,6,1.9H367
			c5.7-0.1,10.3-4.8,10.3-10.5V75.2l-55.6-44.8L377.3-14.3z"/>
		<path class="st1" d="M424.4-8.3h-40.7v108.7c0,5.9,4.7,10.6,10.6,10.6h16.2c1.6-0.2,3-0.8,4-1.5c1.1-0.8,12.3-9.8,20.3-16.3V2.1
			C434.9-3.6,430.2-8.3,424.4-8.3"/>
		<path class="st1" d="M383.8-41.3v26.7H435V-50h-40.7C388.3-50.1,383.8-45.4,383.8-41.3"/>
		<path class="st1" d="M580.3-14.3v-25.3c0-5.7-4.6-10.3-10.3-10.4h-22.8c-2.2,0-4.2,0.6-6,1.8l-48.7,42v-33.4
			c0-5.8-4.7-10.4-10.5-10.4h-40.6v161.1H482c5.8,0,10.5-4.8,10.5-10.5V67.3l48.7,42c1.7,1.2,3.8,1.9,6,1.9H570
			c5.7-0.1,10.3-4.8,10.3-10.5V75.4l-55.6-44.8L580.3-14.3z"/>
		<path class="st1" d="M715.1-50.1h-84.4l-44,35.4v115.2c0,5.8,4.7,10.5,10.5,10.5h40.6V59.5h36.6v51.6h40.7
			c5.8,0,10.5-4.7,10.5-10.5V-39.6C725.6-45.4,720.9-50.1,715.1-50.1 M674.4,20.7h-36.6v-35.4h36.6V20.7z"/>
	</g>
</g>
</svg>
