<?xml version="1.0" encoding="UTF-8"?>
<svg width="873px" height="401px" viewBox="0 0 873 401" version="1.1" xmlns="http://www.w3.org/2000/svg" xmlns:xlink="http://www.w3.org/1999/xlink">
    <!-- Generator: Sketch 60.1 (88133) - https://sketch.com -->
    <title>ARD_Logo_2019_RGB Copy 2</title>
    <desc>Created with Sketch.</desc>
    <defs>
        <polygon id="path-1" points="0.06 0.232 872.886 0.232 872.886 400.94 0.06 400.94"></polygon>
    </defs>
    <g id="ARD_Logo_2019_RGB-Copy-2" stroke="none" stroke-width="1" fill="none" fill-rule="evenodd">
        <g id="Group-6">
            <mask id="mask-2" fill="white">
                <use xlink:href="#path-1"></use>
            </mask>
            <g id="Clip-2"></g>
            <polyline id="Fill-1" fill="#96999C" mask="url(#mask-2)" points="737.054 260.737 737.054 96.09 571.786 155.537 571.786 196.624 626.563 176.701 626.563 300.264 737.054 260.737"></polyline>
            <path d="M674.032,0.232 C606.065,0.232 545.212,34.233 508.98,85.983 L538.124,106.344 C567.904,63.918 617.356,35.518 673.167,35.518 C763.739,35.518 835.717,109.736 835.717,200.615 C835.717,291.497 763.739,365.717 673.167,365.717 C617.341,365.717 568.189,337.108 538.41,294.663 L508.735,315.374 C544.965,367.141 604.011,401 671.991,401 C783.165,401 872.886,311.03 872.886,200.363 C872.886,89.692 784.7,0.232 674.032,0.232" id="Fill-3" fill="#96999C" mask="url(#mask-2)"></path>
            <path d="M417.672,261.195 C410.773,261.195 401.458,260.841 396.547,260.063 L396.547,139.704 C401.841,139.393 409.642,139.209 417.672,139.209 C454.182,139.209 471.93,159.281 471.93,200.566 C471.93,241.93 454.688,261.195 417.672,261.195 M420.039,107.92 C400.459,107.92 387.504,108.256 377.097,108.528 C370.631,108.694 365.526,108.829 360.693,108.829 L359.793,108.829 L359.793,291.739 L367.022,291.914 C381.451,292.269 397.806,292.668 414.212,292.668 C477.326,292.668 510.684,260.319 510.684,199.113 C510.684,139.452 479.34,107.92 420.039,107.92" id="Fill-4" fill="#96999C" mask="url(#mask-2)"></path>
            <path d="M58.881,223.515 L76.756,167.346 C79.155,159.849 81.564,151.165 83.398,143.438 C85.113,150.059 87.435,158.139 90.326,167.528 L108.25,223.515 L58.881,223.515 Z M108.599,109.438 L108.392,108.827 L62.51,108.827 L0,292.123 L37.051,292.123 L49.041,254.443 L118.152,254.443 L130.215,292.123 L170.903,292.123 L108.599,109.438 L108.599,109.438 Z" id="Fill-5" fill="#96999C" mask="url(#mask-2)"></path>
        </g>
        <path d="M229.672,139.301 C232.481,139.217 241.934,138.965 255.74,138.965 C275.96,138.965 285.787,147.564 285.787,165.252 C285.787,182.694 275.31,191.539 254.649,191.539 L229.672,191.539 L229.672,139.301 Z M296.021,229.057 C293.229,224.281 289.924,219.432 287.299,215.753 C310.589,207.535 324.542,188.911 324.542,163.794 C324.542,127.241 301.633,107.918 258.289,107.918 C239.111,107.918 221.598,108.296 208.807,108.571 C202.172,108.716 196.93,108.827 193.944,108.827 L193.044,108.827 L193.044,292.123 L229.672,292.123 L229.672,222.218 L249.944,222.218 L291.216,292.123 L335.273,292.123 L296.021,229.057 L296.021,229.057 Z" id="Fill-7" fill="#96999C"></path>
    </g>
</svg>