<?xml version="1.0" encoding="utf-8"?>
<!-- Generator: Adobe Illustrator 21.0.2, SVG Export Plug-In . SVG Version: 6.00 Build 0)  -->
<svg version="1.1" id="Ebene_1" xmlns="http://www.w3.org/2000/svg" xmlns:xlink="http://www.w3.org/1999/xlink" x="0px" y="0px"
	 viewBox="0 0 292 292" style="enable-background:new 0 0 292 292;" xml:space="preserve">
<style type="text/css">
	.st0{display:none;}
	.st1{display:inline;fill:#E6E6E6;}
	.st2{fill:#FFFFFF;}
	.st3{fill:#2E2925;}
	.st4{fill:#2E2A25;}
</style>
<g id="clear_space" class="st0">
	<path class="st1" d="M0,316v-29.3c0-25.8,12.1-50.9,56.9-50.9c44.7,0,56.9,25.1,56.9,50.9V316c0,25.8-12.1,50.9-56.9,50.9
		S0,341.8,0,316z M76.5,317v-31.3c0-11.9-6.2-18.6-19.6-18.6c-13.5,0-19.6,6.7-19.6,18.6V317c0,11.9,6.2,18.6,19.6,18.6
		C70.3,335.6,76.5,328.9,76.5,317z"/>
	<path class="st1" d="M850,316v-29.3c0-25.8,12.1-50.9,56.9-50.9c44.7,0,56.9,25.1,56.9,50.9V316c0,25.8-12.1,50.9-56.9,50.9
		C862.2,366.9,850,341.8,850,316z M926.6,317v-31.3c0-11.9-6.2-18.6-19.6-18.6c-13.5,0-19.6,6.7-19.6,18.6V317
		c0,11.9,6.2,18.6,19.6,18.6S926.6,328.9,926.6,317z"/>
	<path class="st1" d="M349,181.7h-29.2c-25.8,0-50.9-12.1-50.9-56.9c0-44.7,25.1-56.9,50.9-56.9H349c25.8,0,50.9,12.1,50.9,56.9
		S374.8,181.7,349,181.7z M350,105.2h-31.3c-11.9,0-18.6,6.2-18.6,19.6c0,13.5,6.7,19.6,18.6,19.6H350c11.9,0,18.6-6.2,18.6-19.6
		S361.9,105.2,350,105.2z"/>
	<path class="st1" d="M349,478.2h-29.2c-25.8,0-50.9-12.1-50.9-56.9c0-44.7,25.1-56.9,50.9-56.9H349c25.8,0,50.9,12.1,50.9,56.9
		S374.8,478.2,349,478.2z M350,401.7h-31.3c-11.9,0-18.6,6.2-18.6,19.6c0,13.5,6.7,19.6,18.6,19.6H350c11.9,0,18.6-6.2,18.6-19.6
		C368.6,407.9,361.9,401.7,350,401.7z"/>
</g>
<g>
	<g>
		<polygon class="st2" points="158.3,89.9 158.3,23.1 0,56.7 0,268.9 133.7,240.5 133.7,268.9 292,235.3 292,61.5 		"/>
	</g>
	<g>
		<g>
			<path class="st3" d="M103.8,158.9v53.5l-34,7.2v-44.5c0-3.6-1.6-4.9-4.9-4.2l-3,0.6v49.8l-34,7.2v-49.7l-6,1.3V155l26.8-5.7
				c5.8-1.2,8.5,1.5,9.3,7.8l0.5-0.1c7.9-10.8,20.2-15.5,26.2-16.8C94.9,137.9,103.8,141.9,103.8,158.9z M184.3,164.5l-42.4,9
				c1.1,7.2,3.8,9.1,8.8,8c3.7-0.8,7.8-3.2,11.2-7.1l19.4-4.1v16.5c-9,9-20.7,15-34,17.8c-23.5,5-38.1-6.7-38.3-31
				c-0.2-23.2,13.1-41.6,37.8-46.8C171.9,121.6,186.9,137.6,184.3,164.5z M141.8,160.6l11.6-2.5c-0.5-6.1-2.5-8.8-5.8-8.1
				C144.5,150.7,142.4,153.8,141.8,160.6z M267.2,140.1c0.1,23.5-13.5,42-38.9,47.3c-24.2,5.1-39.3-6.5-39.2-30.7
				c0.2-23.2,13.8-41.7,39.1-47.1C251,104.7,267.2,117.3,267.2,140.1z M228.1,132.9c-4,0.8-6.1,5.9-6.1,17.6
				c-0.1,11.7,2.2,16.3,6.1,15.4c3.8-0.8,5.8-6.3,5.9-18.1C234.1,136.3,232,132.1,228.1,132.9z"/>
		</g>
		<g>
			<path class="st4" d="M22.1,134.6v-8.8l17.1-26l-9.6,2.1l-0.2,4.4l-7.4,1.5v-13l29.8-6.3v8.7l-17,26.1l10.2-2.2l0.3-5.1l8.1-1.7
				V128L22.1,134.6z M93.7,108.3c0,1.9,0.6,2.4,2.3,2.1l1.6-0.3v8.6l-7.7,1.6c-3.8,0.8-5.5-0.4-5.8-3.8l-0.4-0.1
				c-1.6,3.8-4.8,6.8-10.5,8c-7.4,1.5-15-2.1-15-16.8c0-14.1,4.9-22.1,15.1-24.3c3.8-0.8,7.2,0.4,8.8,2.8l0.3-0.1V72.5l-3.6,0.8
				v-8.5l14.8-3.2L93.7,108.3L93.7,108.3L93.7,108.3z M82.5,102.7c0-7.7-1.8-11.4-5.5-11.3c-4.3,0.3-6.9,5.4-6.9,13.4
				c0,6.8,1.9,10.2,5.8,10.1C80.1,114.8,82.5,110.4,82.5,102.7z M106.5,76.9v-6.5c0-9,3.5-13.1,13.4-15.2c5.1-1.1,9.8-0.9,11.1-0.8
				v10.7l-7.6,1.6V63c-0.9,0.1-1.6,0-2.8,0.3c-2.4,0.5-3.5,1.9-3.5,4.6v6.8l9.5-2v8.6l-8.9,1.9v22.6l5.7-1.2v8.6l-20.7,4.4V109
				l3.8-0.8V85.6l-4,0.8v-8.6L106.5,76.9z"/>
		</g>
		<polygon class="st4" points="192.9,212.1 192.9,225.3 264.2,210.2 264.2,196.9 		"/>
	</g>
</g>
</svg>
