<?xml version="1.0" encoding="utf-8"?>
<!-- Generator: Adobe Illustrator 23.0.1, SVG Export Plug-In . SVG Version: 6.00 Build 0)  -->
<svg version="1.1" id="Ebene_1" xmlns="http://www.w3.org/2000/svg" xmlns:xlink="http://www.w3.org/1999/xlink" x="0px" y="0px"
	 viewBox="0 0 377 212" style="enable-background:new 0 0 377 212;" xml:space="preserve">
<style type="text/css">
	.st0{fill:#989898;}
	.st1{fill:#FFFFFF;}
</style>
<g id="_x33_sat_x5F_logo_x5F_schwarz_x5F_weiß_x5F_2_x5F_CMYK">
	<g id="Logo_1_">
		<rect id="viereck_1_" class="st0" width="211.3" height="211.3"/>
		<g id="sat">
			<path id="s" class="st0" d="M266.3,50.1c-3.7-4-8.2-6.7-13.3-6.7c-6,0-7.6,2.7-7.6,5.1c0,9.2,29.1,4.8,29.1,25.7
				c0,10.3-9.5,17.2-21.9,17.2c-10.6,0-19.2-4.1-24.7-10.6l7.9-7.9c3.9,4.6,9.8,7.6,16.1,7.6c5.6,0,8.8-2.4,8.8-6
				c0-10.8-28.9-6-28.9-25.8c0-9.1,8-15.5,20.7-15.5c9.4,0,15.7,3.4,21.3,9.4L266.3,50.1z"/>
			<path id="a" class="st0" d="M317.8,68.7v-4.9c-15.7,1.5-22.2,5.3-22.2,10.8c0,4,2.8,6.3,8,6.3C309.6,80.9,317.8,76.7,317.8,68.7
				 M331.1,54.7v35H319l-0.3-5.7c-4,4.7-10.3,7.4-18.2,7.4c-11.5,0-18.6-6.5-18.6-15.9c0-11.7,10.6-18.7,35.9-21v-0.8
				c0-7.2-4.6-9.8-11.1-9.8c-4.6,0-9,1.9-13.7,6.3l-7.7-7.7c4.6-4.7,12.1-9.4,22.4-9.4C321.7,33,331.1,40.6,331.1,54.7"/>
			<path id="t" class="st0" d="M377,84.8c-4.8,5.3-10.8,6.6-15.3,6.6c-12.7,0-19.2-7.8-19.2-18.8V27.8l13.3-13.3v20.1h16.7v10.6
				h-16.7v26.6c0,4.7,1.5,7.8,6.7,7.8c2,0,4.1-0.5,6.5-2.8L377,84.8z"/>
		</g>
		<g id="drei">
			<path id="teil03" class="st1" d="M142,81.9l-20.3,20.3c5.7,4.6,10.3,11.1,10.3,20.7c0,15.7-12.7,27.4-28.6,27.4
				c-17.6,0-27.6-10.6-33-22.4l-20.5,20.5c9.4,15.1,26.6,29.9,53.4,29.9c31.4,0,57.8-23.9,57.8-55.3C161.3,104.9,152.6,91,142,81.9z
				"/>
			
				<rect id="teil02_1_" x="84.6" y="59.5" transform="matrix(0.7071 -0.7071 0.7071 0.7071 -15.1748 109.1484)" class="st1" width="79.1" height="26.7"/>
			<polygon id="teil01" class="st1" points="77.7,59.2 51.6,33.2 137,33.2 110.9,59.2 			"/>
		</g>
	</g>
</g>
</svg>
