<?xml version="1.0" encoding="utf-8"?>
<!-- Generator: Adobe Illustrator 21.1.0, SVG Export Plug-In . SVG Version: 6.00 Build 0)  -->
<svg version="1.1" id="Ebene_1" xmlns="http://www.w3.org/2000/svg" xmlns:xlink="http://www.w3.org/1999/xlink" x="0px" y="0px"
	 viewBox="0 0 351 66" style="enable-background:new 0 0 351 66;" xml:space="preserve">
<style type="text/css">
	.st0{fill:#96999C;}
</style>
<g>
	<path class="st0" d="M341.9,39.5v-0.2c0-3.6-1.8-5.8-4.8-5.8s-4.9,2.2-4.9,5.7v0.3c0,3.5,1.8,5.8,4.9,5.8
		C340.1,45.3,341.9,43,341.9,39.5 M328.2,39.6v-0.2c0-5.4,3.8-9,8.9-9s8.9,3.5,8.9,8.9v0.3c0,5.5-3.8,8.9-8.9,8.9
		C331.9,48.4,328.2,44.9,328.2,39.6 M320,30.7h4v17.4h-4C320,48.1,320,30.7,320,30.7z M319.6,25.5c0-1.3,1.1-2.3,2.4-2.3
		c1.3,0,2.4,1,2.4,2.3c0,1.3-1.1,2.3-2.4,2.3C320.7,27.8,319.6,26.8,319.6,25.5 M310.9,39.4v-0.3c0-3.8-1.8-5.7-4.7-5.7
		c-3,0-4.7,2.1-4.7,5.8v0.2c0,3.8,1.9,5.7,4.6,5.7C308.9,45.2,310.9,43.3,310.9,39.4 M297.4,39.7v-0.3c0-5.6,3.3-9.1,7.8-9.1
		c2.8,0,4.6,1.3,5.6,3V22.6h4v25.5h-4v-2.9c-1,1.7-3.1,3.3-5.7,3.3C300.7,48.4,297.4,45.3,297.4,39.7 M289.5,39.4v-0.3
		c0-3.8-1.8-5.7-4.5-5.7c-2.8,0-4.6,2.1-4.6,5.8v0.2c0,3.8,1.9,5.7,4.4,5.7C287.4,45.2,289.5,43.3,289.5,39.4 M276.3,39.7v-0.3
		c0-5.6,3.5-9.1,7.7-9.1c2.7,0,4.4,1.2,5.4,3v-2.6h4v17.4h-4v-2.8c-1,1.7-3.1,3.2-5.5,3.2C279.8,48.4,276.3,45.3,276.3,39.7
		 M265.3,30.7h4v3.3c1.1-2.2,2.7-3.5,5.7-3.5v3.8c-3.5,0.1-5.7,1.2-5.7,4.9v9h-4V30.7z M256.3,39.4v-0.3c0-3.8-1.8-5.7-4.7-5.7
		c-3,0-4.7,2.1-4.7,5.8v0.2c0,3.8,1.9,5.7,4.6,5.7C254.2,45.2,256.3,43.3,256.3,39.4 M242.8,39.7v-0.3c0-5.6,3.3-9.1,7.8-9.1
		c2.8,0,4.6,1.3,5.6,3V22.6h4v25.5h-4v-2.9c-1,1.7-3.1,3.3-5.7,3.3C246.1,48.4,242.8,45.3,242.8,39.7 M223.4,30.7h4v2.8
		c0.8-1.7,2.8-3.1,5.6-3.1c3.5,0,6,2,6,6.8v10.9h-4V37.5c0-2.6-1.1-3.8-3.5-3.8c-2.2,0-4.1,1.4-4.1,4.1V48h-4L223.4,30.7L223.4,30.7
		z M214.3,39.4v-0.3c0-3.8-1.8-5.7-4.5-5.7c-2.8,0-4.6,2.1-4.6,5.8v0.2c0,3.8,1.9,5.7,4.4,5.7C212.3,45.2,214.3,43.3,214.3,39.4
		 M201.2,39.7v-0.3c0-5.6,3.5-9.1,7.7-9.1c2.7,0,4.4,1.2,5.4,3v-2.6h4v17.4h-4v-2.8c-1,1.7-3.1,3.2-5.5,3.2
		C204.6,48.4,201.2,45.3,201.2,39.7 M193,22.6h4v25.5h-4V22.6z M172.4,22.6h4v10.8c0.8-1.7,2.8-3.1,5.6-3.1c3.5,0,6,2,6,6.8v10.9h-4
		V37.5c0-2.6-1.1-3.8-3.5-3.8c-2.2,0-4.1,1.4-4.1,4.1V48h-4L172.4,22.6L172.4,22.6z M151.7,39.6v-0.3c0-5.5,3.9-9,8.8-9
		c3.8,0,7.5,1.7,8,6.5h-3.9c-0.4-2.3-1.8-3.3-4-3.3c-2.8,0-4.7,2.1-4.7,5.7v0.3c0,3.8,1.9,5.8,4.9,5.8c2.1,0,4-1.2,4.2-3.7h3.7
		c-0.3,4-3.3,6.8-8,6.8C155.5,48.4,151.7,45.2,151.7,39.6 M134.8,42.7h3.8c0.2,1.8,1.1,2.8,3.5,2.8c2.2,0,3.1-0.8,3.1-2.2
		c0-1.4-1.2-1.9-3.7-2.4c-4.6-0.7-6.3-2-6.3-5.3c0-3.5,3.3-5.2,6.5-5.2c3.5,0,6.4,1.3,6.8,5.3h-3.7c-0.4-1.6-1.2-2.3-3.1-2.3
		c-1.7,0-2.8,0.8-2.8,2.1s0.8,1.8,3.6,2.2c4.1,0.7,6.5,1.6,6.5,5.3c0,3.5-2.5,5.6-7,5.6C137.5,48.4,134.9,46.4,134.8,42.7
		 M124.5,43.2v-9.5h-2.3v-3h2.3v-3.8h4v3.8h3.8v3h-3.8v9.2c0,1.5,0.7,2.2,2,2.2c0.8,0,1.4-0.1,1.9-0.4v3.2c-0.7,0.2-1.5,0.4-2.7,0.4
		C126.3,48.4,124.5,46.5,124.5,43.2 M103.4,41.8V30.6h4v10.7c0,2.6,1.1,3.8,3.4,3.8c2.2,0,4.1-1.4,4.1-4.1V30.7h4v17.4h-4v-2.7
		c-0.9,1.7-2.7,3.1-5.5,3.1C106,48.4,103.4,46.5,103.4,41.8 M95.6,37.5c-0.2-3-1.7-4.3-4.2-4.3c-2.4,0-4.1,1.6-4.4,4.3H95.6z
		 M82.8,39.6v-0.2c0-5.4,3.7-9,8.6-9c4.3,0,8.2,2.5,8.2,8.8v1.2H86.9c0.1,3.3,1.8,5.2,4.8,5.2c2.4,0,3.7-1,4-2.7h3.9
		c-0.6,3.7-3.5,5.7-8,5.7C86.5,48.4,82.8,45,82.8,39.6 M67.2,44.6c5.3,0,7.9-3.1,7.9-8.3V36c0-5.2-2.3-8.2-7.9-8.2h-2.5v16.8H67.2z
		 M60.1,24.3h7.2c8.3,0,12.3,4.7,12.3,11.7v0.3c0,6.9-4,11.8-12.4,11.8h-7.2V24.3z"/>
	<path class="st0" d="M35.1,33.2H4v6.7h31V33.2z M4,29.8h28.1v-4.3H4V29.8z M4,22.5h20.4v-2.9H4V22.5z M30.2,43.3H4v4h26.2V43.3z
		 M24.4,52.7H4v-2.5h20.4V52.7z"/>
</g>
</svg>
